<svg xmlns="http://www.w3.org/2000/svg" id="Tutius" data-name="Tutius" width="600" height="360" viewBox="0 0 1866.7 1030.7">
  <path fill="currentColor" d="M230.2 1012.4q-25.2 18.6-69.4 18.6-49.2 0-76.7-26.9Q56.5 977.2 56.5 929V774.2H4.7v-8.3L116.4 657.3h0.5v61.1h93v55.8h-93V920.7q0 26.2 12.6 39.5Q142.2 973.5 167.4 973.5q40.9-0.3 62.8-18.6Z" />
  <path fill="currentColor" d="M400.5 909.1q0 34.9 15.3 53.1 15.3 18.3 44.2 18.3 37.5 0 70.1-39.2l6-7.3V718.4h60.4v305.6h-60.4V980.2q-42.8 50.8-87.7 50.8-53.1 0-80.7-32.2-27.6-32.2-27.6-94.3V718.4H400.5Z"/>
  <path fill="currentColor" d="M932.9 1012.4q-25.2 18.6-69.4 18.6-49.2 0-76.7-26.9-27.6-26.9-27.6-75.1V774.2H707.3v-8.3L819.1 657.3H819.6v61.1h93v55.8H819.6V920.7q0 26.2 12.6 39.5 12.6 13.3 37.9 13.3 40.9-0.3 62.8-18.6Z"/>
  <path fill="currentColor" d="M1077.3 587.2a36.3 36.3 0 1 1-25.9 10.6A35.3 35.3 0 0 1 1077.3 587.2ZM1047.1 718.4h60.5v305.6H1047.1Z"/>
  <path fill="currentColor" d="M1320.3 909.1q0 34.9 15.3 53.1 15.3 18.3 44.2 18.3 37.5 0 70.1-39.2l6-7.3V718.4h60.4v305.6h-60.4V980.2q-42.8 50.8-87.7 50.8-53.1 0-80.7-32.2-27.6-32.2-27.6-94.3V718.4h60.4Z"/>
  <path fill="currentColor" d="M1847.7 795.8q-23.9-16.6-44-24.1a119.5 119.5 0 0 0-42-7.5q-20.3 0-33 8-12.8 8-12.8 20.9 0 10.6 12.3 21.3 12.3 10.6 44.2 27.6 48.6 25.9 69.2 48.8 20.4 22.9 20.4 51.8 0 40.2-29.4 64.3-29.4 24.1-78.2 24.1a159.8 159.8 0 0 1-46-6.8q-22.7-6.8-53.3-23.1V937q29.9 21.6 53.5 31.4 23.6 9.8 45.8 9.8 20.9 0 33.9-9.5 13-9.5 13-24.4 0-14.6-9.6-22.9-9.7-8-57.6-33.2-42.9-22.6-61.2-43.8-17.8-20.9-17.8-47.8 0-38.5 27.4-61.8 27.4-23.2 72.9-23.3a158.9 158.9 0 0 1 44.7 6.1q21.1 6.2 47.7 20.8Z"/>
  <polygon fill="currentColor" points="1018.2 276.5 961.6 335.2 1113.2 482.5 1348.1 248.7 1111.1 11.7 754.5 372.6 630.6 246.6 753.4 123.8 847.4 216.7 902.9 163.3 755.5 11.7 518.5 248.7 754.5 482.5 1115.4 123.8 1239.2 247.6 1111.1 372.6 1018.2 276.5"/>
</svg>
